<svg xmlns="http://www.w3.org/2000/svg" viewBox="0 0 100 100" width="256" height="256"><g transform="translate(0 2.6)"><g fill="#0094bb"><circle cx="38.17" cy="50.7" r="19.65"/><circle cx="62.87" cy="50.7" r="19.65"/><path d="M38.17 31.05H62.87V70.36H38.17Z"/></g><g fill="#061116"><path d="M41.65 51.03C42.79 53.38 42.79 53.73 41.63 54.3C40.47 54.87 40.19 54.65 39.04 52.3C37.9 49.95 37.9 49.59 39.06 49.03C40.22 48.46 40.5 48.68 41.65 51.03Z"/><path d="M62.23 51.59C61.27 54.39 60.99 54.67 59.67 54.22C58.35 53.77 58.31 53.37 59.27 50.57C60.24 47.77 60.52 47.48 61.83 47.94C63.15 48.39 63.19 48.79 62.23 51.59Z"/></g></g></svg>