<svg xmlns="http://www.w3.org/2000/svg" viewBox="0 0 100 100" width="256" height="256"><g transform="translate(0 -0.6)"><g fill="#0094bb"><circle cx="38.17" cy="50.7" r="19.65"/><circle cx="62.87" cy="50.7" r="19.65"/><path d="M38.17 31.05H62.87V70.36H38.17Z"/></g><g fill="#061116"><path d="M44.89 46.96C43.95 51.34 43.64 51.83 42 51.48C40.36 51.13 40.27 50.55 41.2 46.17C42.13 41.79 42.45 41.3 44.09 41.65C45.73 41.99 45.82 42.57 44.89 46.96Z"/><path d="M60.13 45.69C60.98 51.73 60.86 52.5 59.01 52.76C57.15 53.02 56.82 52.31 55.97 46.27C55.12 40.23 55.24 39.46 57.1 39.2C58.95 38.94 59.28 39.64 60.13 45.69Z"/></g></g></svg>