<svg xmlns="http://www.w3.org/2000/svg" viewBox="0 0 100 100" width="256" height="256"><g fill="#0094bb"><circle cx="38.17" cy="50.7" r="19.65"/><circle cx="62.87" cy="50.7" r="19.65"/><path d="M38.17 31.05H62.87V70.36H38.17Z"/></g><g fill="#061116"><path d="M44.23 47.7C44.56 52.45 44.35 53.05 42.32 53.19C40.28 53.34 39.99 52.77 39.65 48.02C39.32 43.28 39.53 42.68 41.57 42.53C43.61 42.39 43.9 42.96 44.23 47.7Z"/><path d="M62.43 46.46C63.28 49.86 63.02 50.37 60.1 51.09C57.18 51.82 56.72 51.5 55.87 48.1C55.03 44.7 55.28 44.19 58.2 43.46C61.12 42.73 61.58 43.06 62.43 46.46Z"/></g></svg>